<mxfile host="app.diagrams.net" agent="Mozilla/5.0 (Windows NT 10.0; Win64; x64) AppleWebKit/537.36 (KHTML, like Gecko) Chrome/140.0.0.0 Safari/537.36" version="27.1.1">
  <diagram name="Page-1" id="ODVWsg5rM40ESvpH8ZbO">
    <mxGraphModel dx="1511" dy="1595" grid="1" gridSize="10" guides="1" tooltips="1" connect="1" arrows="1" fold="1" page="0" pageScale="1" pageWidth="827" pageHeight="1169" math="0" shadow="0">
      <root>
        <mxCell id="0" />
        <mxCell id="1" parent="0" />
        <mxCell id="W8CpPDUaSPLuwVIfc6on-2" value="book" style="swimlane;fontStyle=0;childLayout=stackLayout;horizontal=1;startSize=26;horizontalStack=0;resizeParent=1;resizeParentMax=0;resizeLast=0;collapsible=1;marginBottom=0;align=center;fontSize=14;" vertex="1" parent="1">
          <mxGeometry x="40" y="-760" width="128" height="146" as="geometry" />
        </mxCell>
        <mxCell id="W8CpPDUaSPLuwVIfc6on-3" value="&lt;u&gt;isbn TEXT&lt;/u&gt;" style="text;strokeColor=none;fillColor=none;spacingLeft=4;spacingRight=4;overflow=hidden;rotatable=0;points=[[0,0.5],[1,0.5]];portConstraint=eastwest;fontSize=12;whiteSpace=wrap;html=1;" vertex="1" parent="W8CpPDUaSPLuwVIfc6on-2">
          <mxGeometry y="26" width="128" height="30" as="geometry" />
        </mxCell>
        <mxCell id="W8CpPDUaSPLuwVIfc6on-4" value="title TEXT" style="text;strokeColor=none;fillColor=none;spacingLeft=4;spacingRight=4;overflow=hidden;rotatable=0;points=[[0,0.5],[1,0.5]];portConstraint=eastwest;fontSize=12;whiteSpace=wrap;html=1;" vertex="1" parent="W8CpPDUaSPLuwVIfc6on-2">
          <mxGeometry y="56" width="128" height="30" as="geometry" />
        </mxCell>
        <mxCell id="W8CpPDUaSPLuwVIfc6on-5" value="nb_pages INTEGER" style="text;strokeColor=none;fillColor=none;spacingLeft=4;spacingRight=4;overflow=hidden;rotatable=0;points=[[0,0.5],[1,0.5]];portConstraint=eastwest;fontSize=12;whiteSpace=wrap;html=1;" vertex="1" parent="W8CpPDUaSPLuwVIfc6on-2">
          <mxGeometry y="86" width="128" height="30" as="geometry" />
        </mxCell>
        <mxCell id="W8CpPDUaSPLuwVIfc6on-6" value="summary TEXT" style="text;strokeColor=none;fillColor=none;spacingLeft=4;spacingRight=4;overflow=hidden;rotatable=0;points=[[0,0.5],[1,0.5]];portConstraint=eastwest;fontSize=12;whiteSpace=wrap;html=1;" vertex="1" parent="W8CpPDUaSPLuwVIfc6on-2">
          <mxGeometry y="116" width="128" height="30" as="geometry" />
        </mxCell>
        <mxCell id="W8CpPDUaSPLuwVIfc6on-7" value="author" style="swimlane;fontStyle=0;childLayout=stackLayout;horizontal=1;startSize=26;horizontalStack=0;resizeParent=1;resizeParentMax=0;resizeLast=0;collapsible=1;marginBottom=0;align=center;fontSize=14;" vertex="1" parent="1">
          <mxGeometry x="390" y="-760" width="130" height="86" as="geometry" />
        </mxCell>
        <mxCell id="W8CpPDUaSPLuwVIfc6on-8" value="&lt;u&gt;id_author INTEGER&lt;/u&gt;" style="text;strokeColor=none;fillColor=none;spacingLeft=4;spacingRight=4;overflow=hidden;rotatable=0;points=[[0,0.5],[1,0.5]];portConstraint=eastwest;fontSize=12;whiteSpace=wrap;html=1;" vertex="1" parent="W8CpPDUaSPLuwVIfc6on-7">
          <mxGeometry y="26" width="130" height="30" as="geometry" />
        </mxCell>
        <mxCell id="W8CpPDUaSPLuwVIfc6on-9" value="name TEXT" style="text;strokeColor=none;fillColor=none;spacingLeft=4;spacingRight=4;overflow=hidden;rotatable=0;points=[[0,0.5],[1,0.5]];portConstraint=eastwest;fontSize=12;whiteSpace=wrap;html=1;" vertex="1" parent="W8CpPDUaSPLuwVIfc6on-7">
          <mxGeometry y="56" width="130" height="30" as="geometry" />
        </mxCell>
        <mxCell id="W8CpPDUaSPLuwVIfc6on-11" value="category" style="swimlane;fontStyle=0;childLayout=stackLayout;horizontal=1;startSize=26;horizontalStack=0;resizeParent=1;resizeParentMax=0;resizeLast=0;collapsible=1;marginBottom=0;align=center;fontSize=14;" vertex="1" parent="1">
          <mxGeometry x="390" y="-630" width="130" height="86" as="geometry" />
        </mxCell>
        <mxCell id="W8CpPDUaSPLuwVIfc6on-12" value="&lt;u&gt;id_category INTEGER&lt;/u&gt;" style="text;strokeColor=none;fillColor=none;spacingLeft=4;spacingRight=4;overflow=hidden;rotatable=0;points=[[0,0.5],[1,0.5]];portConstraint=eastwest;fontSize=12;whiteSpace=wrap;html=1;" vertex="1" parent="W8CpPDUaSPLuwVIfc6on-11">
          <mxGeometry y="26" width="130" height="30" as="geometry" />
        </mxCell>
        <mxCell id="W8CpPDUaSPLuwVIfc6on-13" value="name TEXT" style="text;strokeColor=none;fillColor=none;spacingLeft=4;spacingRight=4;overflow=hidden;rotatable=0;points=[[0,0.5],[1,0.5]];portConstraint=eastwest;fontSize=12;whiteSpace=wrap;html=1;" vertex="1" parent="W8CpPDUaSPLuwVIfc6on-11">
          <mxGeometry y="56" width="130" height="30" as="geometry" />
        </mxCell>
        <mxCell id="W8CpPDUaSPLuwVIfc6on-14" value="book_author" style="swimlane;fontStyle=0;childLayout=stackLayout;horizontal=1;startSize=26;horizontalStack=0;resizeParent=1;resizeParentMax=0;resizeLast=0;collapsible=1;marginBottom=0;align=center;fontSize=14;" vertex="1" parent="1">
          <mxGeometry x="210" y="-760" width="140" height="86" as="geometry" />
        </mxCell>
        <mxCell id="W8CpPDUaSPLuwVIfc6on-16" value="&lt;u&gt;# isbn TEXT&lt;/u&gt;" style="text;strokeColor=none;fillColor=none;spacingLeft=4;spacingRight=4;overflow=hidden;rotatable=0;points=[[0,0.5],[1,0.5]];portConstraint=eastwest;fontSize=12;whiteSpace=wrap;html=1;" vertex="1" parent="W8CpPDUaSPLuwVIfc6on-14">
          <mxGeometry y="26" width="140" height="30" as="geometry" />
        </mxCell>
        <mxCell id="W8CpPDUaSPLuwVIfc6on-15" value="&lt;u&gt;# id_author&lt;/u&gt;&lt;u style=&quot;background-color: transparent; color: light-dark(rgb(0, 0, 0), rgb(255, 255, 255));&quot;&gt;&amp;nbsp;INTEGER&lt;/u&gt;" style="text;strokeColor=none;fillColor=none;spacingLeft=4;spacingRight=4;overflow=hidden;rotatable=0;points=[[0,0.5],[1,0.5]];portConstraint=eastwest;fontSize=12;whiteSpace=wrap;html=1;" vertex="1" parent="W8CpPDUaSPLuwVIfc6on-14">
          <mxGeometry y="56" width="140" height="30" as="geometry" />
        </mxCell>
        <mxCell id="W8CpPDUaSPLuwVIfc6on-18" value="book_category" style="swimlane;fontStyle=0;childLayout=stackLayout;horizontal=1;startSize=26;horizontalStack=0;resizeParent=1;resizeParentMax=0;resizeLast=0;collapsible=1;marginBottom=0;align=center;fontSize=14;" vertex="1" parent="1">
          <mxGeometry x="210" y="-630" width="140" height="86" as="geometry" />
        </mxCell>
        <mxCell id="W8CpPDUaSPLuwVIfc6on-19" value="&lt;u&gt;# isbn TEXT&lt;/u&gt;" style="text;strokeColor=none;fillColor=none;spacingLeft=4;spacingRight=4;overflow=hidden;rotatable=0;points=[[0,0.5],[1,0.5]];portConstraint=eastwest;fontSize=12;whiteSpace=wrap;html=1;" vertex="1" parent="W8CpPDUaSPLuwVIfc6on-18">
          <mxGeometry y="26" width="140" height="30" as="geometry" />
        </mxCell>
        <mxCell id="W8CpPDUaSPLuwVIfc6on-20" value="&lt;u&gt;# id_category INTEGER&lt;/u&gt;" style="text;strokeColor=none;fillColor=none;spacingLeft=4;spacingRight=4;overflow=hidden;rotatable=0;points=[[0,0.5],[1,0.5]];portConstraint=eastwest;fontSize=12;whiteSpace=wrap;html=1;" vertex="1" parent="W8CpPDUaSPLuwVIfc6on-18">
          <mxGeometry y="56" width="140" height="30" as="geometry" />
        </mxCell>
        <mxCell id="W8CpPDUaSPLuwVIfc6on-21" style="edgeStyle=orthogonalEdgeStyle;rounded=0;orthogonalLoop=1;jettySize=auto;html=1;exitX=1;exitY=0.5;exitDx=0;exitDy=0;entryX=0;entryY=0.5;entryDx=0;entryDy=0;fontSize=12;startSize=8;endSize=8;endArrow=none;startFill=0;" edge="1" parent="1" source="W8CpPDUaSPLuwVIfc6on-3" target="W8CpPDUaSPLuwVIfc6on-19">
          <mxGeometry relative="1" as="geometry" />
        </mxCell>
        <mxCell id="W8CpPDUaSPLuwVIfc6on-22" style="edgeStyle=orthogonalEdgeStyle;rounded=0;orthogonalLoop=1;jettySize=auto;html=1;entryX=0;entryY=0.5;entryDx=0;entryDy=0;fontSize=12;startSize=8;endSize=8;endArrow=none;startFill=0;" edge="1" parent="1" source="W8CpPDUaSPLuwVIfc6on-3" target="W8CpPDUaSPLuwVIfc6on-16">
          <mxGeometry relative="1" as="geometry" />
        </mxCell>
        <mxCell id="W8CpPDUaSPLuwVIfc6on-24" style="edgeStyle=orthogonalEdgeStyle;rounded=0;orthogonalLoop=1;jettySize=auto;html=1;exitX=1;exitY=0.5;exitDx=0;exitDy=0;entryX=0;entryY=0.5;entryDx=0;entryDy=0;fontSize=12;startSize=8;endSize=8;endArrow=none;startFill=0;" edge="1" parent="1" source="W8CpPDUaSPLuwVIfc6on-15" target="W8CpPDUaSPLuwVIfc6on-8">
          <mxGeometry relative="1" as="geometry" />
        </mxCell>
        <mxCell id="W8CpPDUaSPLuwVIfc6on-25" style="edgeStyle=orthogonalEdgeStyle;rounded=0;orthogonalLoop=1;jettySize=auto;html=1;exitX=1;exitY=0.5;exitDx=0;exitDy=0;entryX=0;entryY=0.5;entryDx=0;entryDy=0;fontSize=12;startSize=8;endSize=8;endArrow=none;startFill=0;" edge="1" parent="1" source="W8CpPDUaSPLuwVIfc6on-20" target="W8CpPDUaSPLuwVIfc6on-12">
          <mxGeometry relative="1" as="geometry" />
        </mxCell>
      </root>
    </mxGraphModel>
  </diagram>
</mxfile>
